<svg xmlns="http://www.w3.org/2000/svg" width="1120" height="562" viewBox="0 0 1120 562">
<rect width="100%" height="100%" fill="white"/>
<g font-family="DejaVu Sans, sans-serif" fill="#18212b">
<text x="20" y="32" font-size="21">Matched outcomes: eight complete TabSyn lineages</text>
<text x="20" y="58" font-size="12">Mean of three sample seeds per dataset, then dataset median; fit seed 11; values (measured datasets).</text>
<text x="20" y="86" font-size="13">Method / configuration / size</text>
<text x="410" y="86" font-size="13">CatBoost retention</text>
<text x="585" y="86" font-size="13">Marginal KS/TV</text>
<text x="760" y="86" font-size="13">CatBoost C2ST AUC</text>
<text x="935" y="86" font-size="13">Distance MIA AUC</text>
<text x="20" y="112" font-size="13">ARF / author_default / 1n</text>
<text x="410" y="112" font-size="13">0.769769 (8)</text>
<text x="585" y="112" font-size="13">0.135166 (8)</text>
<text x="760" y="112" font-size="13">0.630299 (8)</text>
<text x="935" y="112" font-size="13">0.500576 (8)</text>
<text x="20" y="140" font-size="13">ARF / author_default / 4n</text>
<text x="410" y="140" font-size="13">0.838851 (8)</text>
<text x="585" y="140" font-size="13">0.128980 (8)</text>
<text x="760" y="140" font-size="13">0.622735 (8)</text>
<text x="935" y="140" font-size="13">0.554860 (8)</text>
<text x="20" y="168" font-size="13">ARF / native_selected / 1n</text>
<text x="410" y="168" font-size="13">0.593045 (8)</text>
<text x="585" y="168" font-size="13">0.133633 (8)</text>
<text x="760" y="168" font-size="13">0.588196 (8)</text>
<text x="935" y="168" font-size="13">0.530510 (8)</text>
<text x="20" y="196" font-size="13">ARF / native_selected / 4n</text>
<text x="410" y="196" font-size="13">0.751501 (8)</text>
<text x="585" y="196" font-size="13">0.132084 (8)</text>
<text x="760" y="196" font-size="13">0.605794 (8)</text>
<text x="935" y="196" font-size="13">0.526889 (8)</text>
<text x="20" y="224" font-size="13">Chow-Liu / author_default / 1n</text>
<text x="410" y="224" font-size="13">0.670542 (8)</text>
<text x="585" y="224" font-size="13">0.185899 (8)</text>
<text x="760" y="224" font-size="13">0.718914 (8)</text>
<text x="935" y="224" font-size="13">0.499732 (8)</text>
<text x="20" y="252" font-size="13">Chow-Liu / author_default / 4n</text>
<text x="410" y="252" font-size="13">0.746211 (8)</text>
<text x="585" y="252" font-size="13">0.185926 (8)</text>
<text x="760" y="252" font-size="13">0.756165 (8)</text>
<text x="935" y="252" font-size="13">0.521817 (8)</text>
<text x="20" y="280" font-size="13">Chow-Liu / native_selected / 1n</text>
<text x="410" y="280" font-size="13">0.582033 (8)</text>
<text x="585" y="280" font-size="13">0.183455 (8)</text>
<text x="760" y="280" font-size="13">0.711232 (8)</text>
<text x="935" y="280" font-size="13">0.502856 (8)</text>
<text x="20" y="308" font-size="13">Chow-Liu / native_selected / 4n</text>
<text x="410" y="308" font-size="13">0.654886 (8)</text>
<text x="585" y="308" font-size="13">0.187927 (8)</text>
<text x="760" y="308" font-size="13">0.706793 (8)</text>
<text x="935" y="308" font-size="13">0.499104 (8)</text>
<text x="20" y="336" font-size="13">GaussianCopula / author_default / 1n</text>
<text x="410" y="336" font-size="13">0.612724 (8)</text>
<text x="585" y="336" font-size="13">0.164405 (8)</text>
<text x="760" y="336" font-size="13">0.676650 (8)</text>
<text x="935" y="336" font-size="13">0.489920 (8)</text>
<text x="20" y="364" font-size="13">GaussianCopula / author_default / 4n</text>
<text x="410" y="364" font-size="13">0.643302 (8)</text>
<text x="585" y="364" font-size="13">0.145906 (8)</text>
<text x="760" y="364" font-size="13">0.686983 (8)</text>
<text x="935" y="364" font-size="13">0.509577 (8)</text>
<text x="20" y="392" font-size="13">GaussianCopula / native_selected / 1n</text>
<text x="410" y="392" font-size="13">0.644886 (8)</text>
<text x="585" y="392" font-size="13">0.183972 (8)</text>
<text x="760" y="392" font-size="13">0.720796 (8)</text>
<text x="935" y="392" font-size="13">0.494503 (8)</text>
<text x="20" y="420" font-size="13">GaussianCopula / native_selected / 4n</text>
<text x="410" y="420" font-size="13">0.679801 (8)</text>
<text x="585" y="420" font-size="13">0.157063 (8)</text>
<text x="760" y="420" font-size="13">0.698101 (8)</text>
<text x="935" y="420" font-size="13">0.492812 (8)</text>
<text x="20" y="448" font-size="13">TabSyn / scaled_author_default / 1n</text>
<text x="410" y="448" font-size="13">0.885345 (8)</text>
<text x="585" y="448" font-size="13">0.138162 (8)</text>
<text x="760" y="448" font-size="13">0.625104 (8)</text>
<text x="935" y="448" font-size="13">0.578286 (8)</text>
<text x="20" y="476" font-size="13">TabSyn / scaled_author_default / 4n</text>
<text x="410" y="476" font-size="13">0.911276 (8)</text>
<text x="585" y="476" font-size="13">0.135998 (8)</text>
<text x="760" y="476" font-size="13">0.669789 (8)</text>
<text x="935" y="476" font-size="13">0.571424 (8)</text>
<text x="20" y="538" font-size="12">Validation only. Empirical attacks; no formal DP, production score or superiority claim.</text></g></svg>
